HIERARCHY
	ROOT pelvis
	{
		OFFSET 0 0 0 
		CHANNELS 6 Xposition Yposition Zposition Zrotation Xrotation Yrotation
		JOINT lfemur_phantom
		{
			OFFSET 0 0.0899607 0 
			CHANNELS 3 Zrotation Xrotation Yrotation
			JOINT lfemur
			{
				OFFSET 0 0 -0.426035 
				CHANNELS 3 Zrotation Xrotation Yrotation
				JOINT ltibia
				{
					OFFSET 0 0 -0.409933 
					CHANNELS 3 Zrotation Xrotation Yrotation
					JOINT lfoot
					{
						OFFSET 0.105631 0 0.00135511 
						CHANNELS 3 Zrotation Xrotation Yrotation
						End Site
						{
							OFFSET 0.0352103 0 0.000451703
						}
					}
				}
			}
		}
		JOINT rfemur_phantom
		{
			OFFSET 0 -0.0899607 0 
			CHANNELS 3 Zrotation Xrotation Yrotation
			JOINT rfemur
			{
				OFFSET 0 0 -0.430137 
				CHANNELS 3 Zrotation Xrotation Yrotation
				JOINT rtibia
				{
					OFFSET 0 0 -0.390377 
					CHANNELS 3 Zrotation Xrotation Yrotation
					JOINT rfoot
					{
						OFFSET 0.106801 0 -0.00121178 
						CHANNELS 3 Zrotation Xrotation Yrotation
						End Site
						{
							OFFSET 0.0356003 0 -0.000403927
						}
					}
				}
			}
		}
		JOINT lowerback_phantom
		{
			OFFSET -0.05 0 0.107967 
			CHANNELS 3 Zrotation Xrotation Yrotation
			JOINT lowerback
			{
				OFFSET 0.0167886 0 0.161801 
				CHANNELS 3 Zrotation Xrotation Yrotation
				JOINT upperback
				{
					OFFSET 0 0 0 
					CHANNELS 3 Zrotation Xrotation Yrotation
					JOINT lclavicle_phantom
					{
						OFFSET 0 0 0.199349 
						CHANNELS 3 Zrotation Xrotation Yrotation
						JOINT lclavicle
						{
							OFFSET 0 0.164108 -0.0174105 
							CHANNELS 3 Zrotation Xrotation Yrotation
							JOINT lhumerus
							{
								OFFSET 0 0 -0.275026 
								CHANNELS 3 Zrotation Xrotation Yrotation
								JOINT lradius
								{
									OFFSET 0 0 -0.248775 
									CHANNELS 3 Zrotation Xrotation Yrotation
									End Site
									{
										OFFSET 0 0 -0.082925
									}
								}
							}
						}
					}
					JOINT rclavicle_phantom
					{
						OFFSET 0 0 0.199349 
						CHANNELS 3 Zrotation Xrotation Yrotation
						JOINT rclavicle
						{
							OFFSET 0 -0.165322 -0.0298984 
							CHANNELS 3 Zrotation Xrotation Yrotation
							JOINT rhumerus
							{
								OFFSET 0 0 -0.273337 
								CHANNELS 3 Zrotation Xrotation Yrotation
								JOINT rradius
								{
									OFFSET 0 0 -0.254845 
									CHANNELS 3 Zrotation Xrotation Yrotation
									End Site
									{
										OFFSET 0 0 -0.0849483
									}
								}
							}
						}
					}
					JOINT LowerNeck_phantom
					{
						OFFSET 0 0 0.199349 
						CHANNELS 3 Zrotation Xrotation Yrotation
						JOINT LowerNeck
						{
							OFFSET -0.0127292 -0.000602123 0.105365 
							CHANNELS 3 Zrotation Xrotation Yrotation
							End Site
							{
								OFFSET -0.00424307 -0.000200708 0.0351217
							}
						}
					}
				}
			}
		}
	}
MOTION
Frames:	9
Frame Time:	0.0166667
0.0313576 0.869891 0.226812 90.1212 -54.2902 87.5813 30.5395 8.67778 -21.0794 20.1595 15.1495 35.4451 -2.99564 -10.4661 28.9291 -4.12338e-007 7.12007e-008 1.70208 -19.1512 -1.33823 -11.9288 -13.1653 -7.92462 30.5159 3.93699 4.72794 5.13924 1.45623e-007 -8.20062e-009 25.7366 0.432845 1.65286 8.70803 4.9898 4.68397 2.29307 -0 0 -0 -7.64905 -11.0421 -1.47347 38.0849 28.3464 -16.919 -3.64537 -4.37653 -129.858 -1.77138e-006 4.55446 -16.1167 1.11041 -0.221655 0.00429579 21.7612 -42.5419 -36.9269 7.59541 11.1548 -124.577 -5.93247e-006 -1.36892 -6.87221 -3.59119 -0.291941 37.1266 29.6809 -34.7593 -58.6769 
0.0323796 0.871666 0.225043 89.9509 -54.6047 87.2523 29.8442 8.96112 -20.7772 20.082 14.8356 35.006 -2.97674 -10.6599 29.2984 -6.27996e-007 -3.55799e-006 2.75862 -18.7882 -1.57384 -11.3561 -13.5526 -7.92354 29.7644 4.16667 5.06984 5.49843 -9.80956e-007 -5.01238e-007 25.821 0.299209 1.54784 8.58937 4.60353 4.60962 2.41836 -0 0 -0 -7.5343 -10.9464 -1.43869 37.9894 28.0894 -16.294 -3.51422 -4.24871 -129.656 -1.25215e-005 4.37991 -15.9833 0.954572 -0.223606 0.00372785 22.2504 -42.1249 -36.3112 7.54142 11.0873 -124.545 -7.46659e-006 -1.14482 -6.79997 -3.55626 -0.372942 37.2944 30.3427 -34.4926 -57.6727 
0.0332722 0.874324 0.222474 89.6683 -54.9014 86.895 28.8625 9.13318 -20.0286 20.6006 14.4436 33.567 -3.04681 -11.1798 29.6491 7.44241e-006 -8.1848e-006 3.82863 -18.286 -1.89827 -10.6553 -14.2785 -7.97061 28.5842 4.53466 5.63288 6.06112 -2.06009e-008 -6.39575e-008 25.9876 0.212114 1.38496 8.38883 4.21058 4.48338 2.49864 -0 0 -0 -7.43102 -10.8118 -1.40153 37.7304 27.9098 -15.5098 -3.45529 -4.20989 -129.437 -2.39613e-005 4.30116 -15.8517 0.748776 -0.303827 0.0039699 22.9991 -41.397 -35.4035 7.55874 11.1068 -124.56 -6.89411e-006 -1.04646 -6.77121 -3.54889 -0.445366 37.4663 30.9924 -34.1431 -56.6878 
0.0341047 0.877482 0.219223 89.3463 -55.2658 86.5804 27.816 9.23072 -18.9735 21.5486 13.9171 31.3445 -3.12196 -11.8106 30.0786 3.97154e-006 2.57714e-006 4.73151 -17.5866 -2.24433 -9.89829 -15.1966 -8.00222 27.1353 4.90313 6.25236 6.77293 1.58661e-006 -8.15065e-009 26.2212 0.131797 1.22848 8.13338 3.92968 4.30248 2.53612 -0 0 -0 -7.30731 -10.6795 -1.36128 37.3751 27.7979 -14.7246 -3.37997 -4.14897 -129.225 -3.18983e-007 4.16404 -15.821 0.531653 -0.433591 0.0040246 23.8401 -40.5063 -34.4137 7.61 11.1734 -124.585 -5.81029e-006 -1.05159 -6.82944 -3.50087 -0.575632 37.64 31.5309 -33.708 -55.8683 
0.0349142 0.88079 0.215459 89.1 -55.7318 86.3871 26.9239 9.32583 -17.7803 22.8087 13.2553 28.6005 -3.17377 -12.4915 30.6213 -1.04033e-005 5.22219e-007 5.52356 -16.7306 -2.5497 -9.09573 -16.1934 -7.97006 25.5227 5.24761 6.8944 7.57964 -3.13634e-007 -2.26067e-007 26.5041 0.0747474 1.15357 7.82887 3.76479 4.10199 2.54281 -0 0 -0 -7.17741 -10.5783 -1.32432 37.0259 27.7421 -14.0209 -3.19608 -3.94619 -129.056 -1.44453e-006 3.86697 -15.9118 0.35357 -0.609661 0.00376134 24.6305 -39.5582 -33.472 7.6817 11.2669 -124.619 8.4872e-006 -1.12428 -6.90603 -3.3684 -0.801246 37.88 31.868 -33.2229 -55.3415 
0.0356668 0.883972 0.211346 89.0098 -56.2923 86.3731 26.3124 9.46782 -16.5985 24.2441 12.4564 25.5925 -3.20121 -13.2071 31.2445 -6.685e-006 3.45612e-006 6.33126 -15.8092 -2.77926 -8.26211 -17.2084 -7.85814 23.8188 5.6063 7.60232 8.42516 4.03795e-007 8.10263e-007 26.8275 0.0720976 1.18946 7.46211 3.66144 3.93025 2.53384 -0 0 -0 -7.04587 -10.5251 -1.29335 36.7353 27.7329 -13.4356 -2.89514 -3.58514 -128.964 -2.86047e-006 3.52291 -15.9936 0.241011 -0.811675 0.00341518 25.2934 -38.6667 -32.6482 7.77169 11.386 -124.657 9.78508e-006 -1.2687 -6.98027 -3.12718 -1.11215 38.2333 31.9715 -32.7357 -55.1585 
0.0362626 0.886786 0.207018 89.0672 -56.9106 86.5392 25.9552 9.65035 -15.5199 25.6933 11.5126 22.5301 -3.19619 -13.8806 31.8964 -1.61373e-006 -1.4455e-006 7.22017 -14.9495 -2.93979 -7.4611 -18.1704 -7.66676 22.1208 5.98706 8.37141 9.23275 4.95548e-007 2.26724e-007 27.1888 0.120309 1.28573 7.03901 3.59057 3.83222 2.51873 -0 0 -0 -6.90799 -10.5181 -1.26697 36.5154 27.7616 -13.0141 -2.57303 -3.1873 -128.946 3.78342e-006 3.33905 -16.0197 0.169561 -0.994635 0.00294312 25.7907 -37.9514 -32.0144 7.89796 11.5608 -124.692 7.39523e-006 -1.45326 -7.06183 -2.80574 -1.45978 38.6534 31.9037 -32.295 -55.2382 
0.0365969 0.889098 0.202502 89.1988 -57.5455 86.832 25.7116 9.83266 -14.5456 27.0464 10.4224 19.511 -3.15215 -14.4599 32.5627 -7.32511e-006 -3.46397e-006 8.10753 -14.1927 -3.07146 -6.75972 -19.0419 -7.4189 20.5114 6.36226 9.14799 9.95687 1.59329e-007 5.51096e-007 27.56 0.189548 1.36927 6.59427 3.57484 3.82387 2.48719 -0 0 -0 -6.78517 -10.5521 -1.24821 36.3771 27.8357 -12.7956 -2.39424 -2.96315 -128.967 -1.26878e-005 3.28324 -16.0573 0.0817538 -1.10968 0.00158271 26.1214 -37.4891 -31.6118 8.02694 11.7435 -124.717 5.50161e-006 -1.66955 -7.15153 -2.47304 -1.80139 39.0609 31.7518 -31.9097 -55.4731 
0.0365832 0.890852 0.197763 89.342 -58.1681 87.1937 25.4711 9.97637 -13.6455 28.2284 9.19158 16.5705 -3.05327 -14.95 33.318 -1.23779e-006 -2.82671e-006 8.92114 -13.542 -3.20918 -6.22024 -19.7595 -7.14314 19.0938 6.67008 9.828 10.5842 4.05403e-008 9.595e-007 27.87 0.270115 1.42469 6.15695 3.60091 3.8722 2.43177 -0 0 -0 -6.69216 -10.6172 -1.23845 36.3361 27.9564 -12.7812 -2.4163 -2.98735 -128.997 -1.1743e-006 3.31676 -16.1249 -0.0399238 -1.14377 -0.000797179 26.3081 -37.2795 -31.4228 8.10226 11.8489 -124.734 1.50686e-005 -1.91924 -7.24936 -2.18878 -2.09729 39.3896 31.6161 -31.5982 -55.7168 
